<svg width="32" height="40" viewBox="0 0 32 40" fill="none" xmlns="http://www.w3.org/2000/svg">
<path d="M17.9864 6.81313V37.9996C17.9864 38.5301 17.7771 39.0389 17.4046 39.4141C17.0321 39.7892 16.5268 40 16 40C15.4732 40 14.9679 39.7892 14.5954 39.4141C14.2229 39.0389 14.0136 38.5301 14.0136 37.9996V6.81313L3.48556 17.4153C3.30598 17.6234 3.08565 17.7918 2.83839 17.91C2.59113 18.0282 2.32227 18.0937 2.04869 18.1023C1.7751 18.111 1.5027 18.0626 1.24856 17.9602C0.994431 17.8578 0.764053 17.7036 0.571883 17.5073C0.379713 17.3111 0.229899 17.0769 0.131842 16.8195C0.0337846 16.5622 -0.0104004 16.2872 0.00205917 16.0118C0.0145188 15.7365 0.0833536 15.4667 0.204246 15.2194C0.325138 14.9721 0.495478 14.7526 0.704578 14.5747L14.6095 0.571833C14.9808 0.205303 15.48 0 16 0C16.52 0 17.0192 0.205303 17.3905 0.571833L31.2954 14.5747C31.5045 14.7526 31.6749 14.9721 31.7957 15.2194C31.9166 15.4667 31.9855 15.7365 31.9979 16.0118C32.0104 16.2872 31.9662 16.5622 31.8682 16.8195C31.7701 17.0769 31.6203 17.3111 31.4281 17.5073C31.2359 17.7036 31.0056 17.8578 30.7514 17.9602C30.4973 18.0626 30.2249 18.111 29.9513 18.1023C29.6777 18.0937 29.4089 18.0282 29.1616 17.91C28.9143 17.7918 28.694 17.6234 28.5144 17.4153L17.9864 6.79312V6.81313Z" fill="#F9703E" fill-opacity="0.9"/>
</svg>
